<svg width="40" height="40" fill="none" xmlns="http://www.w3.org/2000/svg"><path d="M37.433 10a14.277 14.277 0 01-4.1 1.15 7.164 7.164 0 003.134-3.966 14.402 14.402 0 01-4.534 1.75c-1.316-1.434-3.166-2.267-5.266-2.267-3.917 0-7.117 3.2-7.117 7.15 0 .567.067 1.117.183 1.633A20.324 20.324 0 015 7.984a7.074 7.074 0 00-.967 3.583c0 2.483 1.25 4.683 3.184 5.933-1.184 0-2.284-.333-3.25-.833v.05A7.155 7.155 0 009.7 23.734a7.033 7.033 0 01-3.217.116 7.134 7.134 0 006.667 4.967c-2.527 2-5.66 3.082-8.883 3.067-.567 0-1.134-.034-1.7-.1A20.24 20.24 0 0013.533 35c13.134 0 20.35-10.9 20.35-20.35 0-.316 0-.616-.016-.933 1.4-1 2.6-2.267 3.566-3.717z" fill="#67B0C7"/></svg>