<svg width="40" height="40" fill="none" xmlns="http://www.w3.org/2000/svg"><path d="M13 3.333h14c5.333 0 9.667 4.333 9.667 9.667v14A9.666 9.666 0 0127 36.666H13c-5.333 0-9.667-4.333-9.667-9.666V13A9.667 9.667 0 0113 3.333zm-.333 3.333a6 6 0 00-6 6v14.667c0 3.317 2.683 6 6 6h14.666a6 6 0 006-6V12.666c0-3.316-2.683-6-6-6H12.667zm16.083 2.5a2.083 2.083 0 110 4.167 2.083 2.083 0 010-4.167zm-8.75 2.5a8.333 8.333 0 110 16.667 8.333 8.333 0 010-16.667zM20 15a5 5 0 100 10 5 5 0 000-10z" fill="#67B0C7"/></svg>